<?xml version="1.0" standalone="no"?>
<!DOCTYPE svg PUBLIC "-//W3C//DTD SVG 20010904//EN"
 "http://www.w3.org/TR/2001/REC-SVG-20010904/DTD/svg10.dtd">
<svg version="1.0" xmlns="http://www.w3.org/2000/svg"
 width="198.000000pt" height="198.000000pt" viewBox="0 0 198.000000 198.000000"
 preserveAspectRatio="xMidYMid meet">
<metadata>
Created by potrace 1.11, written by Peter Selinger 2001-2013
</metadata>
<g transform="translate(0.000000,198.000000) scale(0.100000,-0.100000)"
fill="#000000" stroke="none">
<path d="M1552 1345 c-131 -40 -186 -174 -118 -290 21 -34 40 -50 89 -74 34
-17 76 -33 92 -36 69 -11 152 -37 175 -54 30 -22 37 -64 16 -96 -24 -37 -69
-54 -134 -51 -74 3 -114 29 -138 92 l-17 45 -56 -5 c-31 -3 -62 -5 -68 -5 -29
-2 -4 -95 42 -161 44 -63 119 -94 232 -97 111 -3 175 15 232 64 77 65 94 188
38 272 -35 52 -96 83 -234 117 -81 21 -115 34 -135 54 -48 49 -14 96 78 106
72 9 121 -14 142 -66 l17 -41 70 6 c38 3 71 8 74 11 11 10 -22 101 -48 134
-48 59 -109 84 -215 86 -53 1 -109 -3 -134 -11z"/>
<path d="M1 1290 l1 -60 108 0 108 0 -1 -302 -1 -303 75 0 74 0 2 290 c0 160
2 296 2 303 1 9 29 12 106 12 115 0 107 -5 107 65 0 59 23 55 -291 55 l-290 0
0 -60z"/>
<path d="M674 1083 c2 -170 7 -284 15 -311 18 -62 83 -126 150 -146 78 -23
232 -17 286 11 70 37 104 80 120 153 5 19 9 153 9 298 l2 262 -73 0 c-63 0
-73 -2 -74 -17 0 -10 0 -121 -1 -247 0 -125 -4 -244 -9 -264 -13 -58 -48 -85
-116 -88 -67 -3 -113 14 -140 55 -18 27 -23 123 -23 449 l0 112 -75 0 -74 0 3
-267z"/>
</g>
</svg>
